<?xml version="1.0" encoding="utf-8"?>
<!-- Generator: Adobe Illustrator 15.0.0, SVG Export Plug-In . SVG Version: 6.00 Build 0)  -->
<!DOCTYPE svg PUBLIC "-//W3C//DTD SVG 1.1//EN" "http://www.w3.org/Graphics/SVG/1.1/DTD/svg11.dtd">
<svg version="1.1" id="Capa_1" xmlns="http://www.w3.org/2000/svg" xmlns:xlink="http://www.w3.org/1999/xlink" x="0px" y="0px"
	 width="412px" height="394px" viewBox="0 0 412 394" enable-background="new 0 0 412 394" xml:space="preserve">
<path fill="#F5F5F5" d="M546.156,122.802c-14.978-9.781-165.342-100.63-182.896-110.029c-25.396-13.617-58.677-20.251-97.482,0.29
	C244.235,24.458,84.188,113.818,65.174,124.782c-28.636,16.533-45.307,36.975-48.16,77.91
	C15.154,229.235,2.799,406.21,1.246,428.335c-2.229,32.082,10.751,55.313,36.978,73.546
	c17.457,12.115,166.007,98.936,185.135,109.951c28.62,16.47,64.257,19.48,100.063-0.224
	c19.457-10.707,152.375-83.372,200.348-110.091c26.132-14.551,44.056-38.34,46.548-73.894
	c1.555-22.218,12.817-183.522,15.688-224.807C589.261,156.23,576.179,142.396,546.156,122.802 M180.34,355.671h-0.008l0.071-0.735
	l2.012-19.193l0.075-0.741h0.02c2.709-24.006,14.139-41.826,29.6-53.932c-12.91-12.101-20.618-29.929-18.288-53.948h-0.02
	l0.083-0.743l1.997-19.171l0.079-0.754h0.026c5.726-50.683,50.312-73.794,89.52-73.794h60.604c5.253,0,7.55,3.656,7.156,7.343
	c-0.334,3.062-2.106,20.099-2.585,24.646c-0.487,4.614-3.768,7.718-8.695,7.718h-60.63c-7.03,0-42.288,1.681-45.753,34.841
	l-2.02,19.171c-3.466,33.147,31.43,34.831,38.457,34.831h60.601h0.03c3.148,0,5.338,1.274,6.397,3.389
	c0.643,1.181,0.866,2.563,0.729,3.958c-0.023,0.104-0.048,0.254-0.048,0.382c-0.455,4.392-2.142,20.443-2.552,24.259
	c0,0.119-0.017,0.281-0.032,0.371c-0.139,1.396-0.665,2.778-1.539,3.969c-1.508,2.105-3.976,3.379-7.109,3.379h-0.038h-60.6
	c-7.027,0-42.282,1.68-45.758,34.827l-2.008,19.193c-3.479,33.134,31.425,34.828,38.455,34.828h60.636
	c4.927,0,7.557,3.109,7.077,7.72c-0.479,4.549-2.266,21.577-2.582,24.64c-0.404,3.706-3.459,7.349-8.696,7.349h-60.602
	C215.191,429.472,175.447,406.365,180.34,355.671 M407.373,269.637l-0.063,0.745l-2.019,19.169l-0.078,0.753h-0.009
	c-2.722,23.999-14.163,41.811-29.621,53.934c12.928,12.099,20.626,29.93,18.297,53.951h0.022l-0.077,0.718l-2.019,19.193
	l-0.063,0.743h-0.023c-5.717,50.694-50.322,73.81-89.544,73.81h-60.595c-5.238,0-7.531-3.652-7.146-7.372
	c0.329-3.04,2.104-20.084,2.591-24.623c0.479-4.611,3.762-7.737,8.677-7.737h60.644c7.023,0,42.285-1.671,45.76-34.82l2.01-19.193
	c3.466-33.125-31.431-34.803-38.456-34.803H255.06h-0.041c-3.145,0-5.341-1.284-6.402-3.404c-0.612-1.185-0.848-2.561-0.7-3.945
	c0-0.109,0.022-0.264,0.042-0.387c0.449-4.394,2.136-20.461,2.533-24.26c0.019-0.124,0.025-0.287,0.036-0.373
	c0.152-1.392,0.684-2.768,1.547-3.96c1.508-2.119,3.965-3.396,7.112-3.396h0.046h60.591c7.024,0,42.277-1.671,45.75-34.828
	l2.013-19.169c3.466-33.16-31.423-34.84-38.456-34.84h-60.634c-4.932,0-7.545-3.105-7.078-7.72
	c0.486-4.552,2.265-21.593,2.594-24.633c0.379-3.709,3.445-7.358,8.688-7.358h60.593c39.206,0,78.962,23.116,74.073,73.806H407.373z
	"/>
</svg>
