<?xml version="1.0" encoding="utf-8"?>
<!-- Generator: Adobe Illustrator 15.0.0, SVG Export Plug-In . SVG Version: 6.00 Build 0)  -->
<!DOCTYPE svg PUBLIC "-//W3C//DTD SVG 1.1//EN" "http://www.w3.org/Graphics/SVG/1.1/DTD/svg11.dtd">
<svg version="1.1" id="Capa_1" xmlns="http://www.w3.org/2000/svg" xmlns:xlink="http://www.w3.org/1999/xlink" x="0px" y="0px"
	 width="22px" height="100px" viewBox="0 0 22 100" enable-background="new 0 0 22 100" xml:space="preserve">
<rect x="4" y="6" fill="#3C3C3B" width="14" height="13"/>
<rect x="4.875" y="6.813" fill="#FFFFFF" width="12.25" height="11.375"/>
<rect x="4.875" y="31" fill="#FFFFFF" width="12.25" height="11.375"/>
<path fill="#3C3C3B" d="M4,30v13h14V30H4z M17.125,42.188H4.875V30.813h12.25V42.188z M14.5,32.844l-4.375,4.063L7.5,34.469
	l-1.75,1.625l4.375,4.063l6.125-5.688L14.5,32.844z"/>
<rect x="4" y="56" fill="#3C3C3B" width="14" height="13"/>
<rect x="4.875" y="56.813" fill="#D2D2D2" width="12.25" height="11.375"/>
<polygon fill="#706F6F" points="14.5,58.844 10.125,62.906 7.5,60.469 5.75,62.094 10.125,66.156 16.25,60.469 "/>
<rect x="4" y="81" fill="#3C3C3B" width="14" height="13"/>
<rect x="4.875" y="81.813" fill="#D2D2D2" width="12.25" height="11.375"/>
</svg>
