<?xml version="1.0" encoding="utf-8"?>
<!-- Generator: Adobe Illustrator 15.0.0, SVG Export Plug-In . SVG Version: 6.00 Build 0)  -->
<!DOCTYPE svg PUBLIC "-//W3C//DTD SVG 1.1//EN" "http://www.w3.org/Graphics/SVG/1.1/DTD/svg11.dtd">
<svg version="1.1" id="Capa_1" xmlns="http://www.w3.org/2000/svg" xmlns:xlink="http://www.w3.org/1999/xlink" x="0px" y="0px"
	 width="99px" height="29px" viewBox="0 0 99 29" enable-background="new 0 0 99 29" xml:space="preserve">
<path fill="#38433D" d="M50.601,12.688c-0.013,0.273-0.085,0.475-0.214,0.605c-0.128,0.13-0.299,0.195-0.512,0.195H45.05
	c-0.018,0.337,0.005,0.644,0.071,0.919c0.066,0.276,0.181,0.511,0.346,0.702c0.165,0.192,0.382,0.34,0.652,0.439
	c0.27,0.102,0.598,0.151,0.983,0.151c0.391,0,0.736-0.028,1.035-0.085c0.3-0.056,0.56-0.116,0.779-0.186
	c0.219-0.068,0.402-0.131,0.546-0.188c0.146-0.055,0.263-0.084,0.352-0.084c0.055,0,0.098,0.011,0.133,0.032
	c0.034,0.02,0.063,0.056,0.083,0.11c0.02,0.053,0.032,0.129,0.036,0.226c0.004,0.099,0.002,0.222-0.006,0.369
	c-0.008,0.131-0.015,0.242-0.026,0.335c-0.012,0.09-0.024,0.169-0.038,0.234c-0.017,0.066-0.037,0.118-0.063,0.164
	c-0.025,0.044-0.059,0.087-0.099,0.13c-0.044,0.04-0.15,0.097-0.325,0.167c-0.177,0.071-0.399,0.142-0.669,0.21
	c-0.271,0.068-0.579,0.128-0.925,0.178c-0.347,0.05-0.715,0.075-1.106,0.075c-0.705,0-1.318-0.088-1.839-0.267
	c-0.521-0.178-0.949-0.447-1.286-0.809c-0.336-0.36-0.578-0.818-0.724-1.368c-0.146-0.552-0.199-1.197-0.159-1.938
	c0.036-0.705,0.161-1.34,0.375-1.906c0.212-0.566,0.504-1.046,0.875-1.44c0.369-0.394,0.811-0.694,1.322-0.902
	c0.512-0.207,1.082-0.311,1.71-0.311c0.662,0,1.225,0.098,1.686,0.293c0.461,0.196,0.834,0.467,1.117,0.813
	c0.284,0.347,0.485,0.757,0.602,1.23c0.117,0.475,0.163,0.989,0.133,1.546L50.601,12.688z M48.466,12.048
	c0.05-0.627-0.049-1.121-0.3-1.479c-0.251-0.359-0.659-0.537-1.221-0.537c-0.285,0-0.534,0.053-0.75,0.159
	c-0.216,0.106-0.398,0.25-0.547,0.432c-0.148,0.18-0.267,0.394-0.354,0.639c-0.087,0.246-0.144,0.508-0.17,0.786H48.466z"/>
<path fill="#38433D" d="M73.137,12.688c-0.015,0.273-0.087,0.475-0.214,0.605c-0.128,0.13-0.299,0.195-0.512,0.195h-4.825
	c-0.02,0.337,0.005,0.644,0.07,0.919c0.066,0.276,0.18,0.511,0.346,0.702c0.165,0.192,0.383,0.34,0.651,0.439
	c0.271,0.102,0.598,0.151,0.983,0.151c0.392,0,0.737-0.028,1.037-0.085c0.298-0.056,0.557-0.116,0.776-0.186
	c0.221-0.068,0.405-0.131,0.547-0.188c0.146-0.055,0.265-0.084,0.352-0.084c0.056,0,0.099,0.011,0.133,0.032
	c0.034,0.02,0.062,0.056,0.082,0.11c0.021,0.053,0.034,0.129,0.038,0.226c0.004,0.099,0.002,0.222-0.006,0.369
	c-0.008,0.131-0.017,0.242-0.026,0.335c-0.012,0.09-0.025,0.169-0.04,0.234c-0.016,0.066-0.034,0.118-0.063,0.164
	c-0.025,0.044-0.058,0.087-0.099,0.13c-0.04,0.04-0.15,0.097-0.323,0.167c-0.177,0.071-0.4,0.142-0.67,0.21
	c-0.271,0.068-0.578,0.128-0.924,0.178c-0.348,0.05-0.716,0.075-1.106,0.075c-0.705,0-1.318-0.088-1.839-0.267
	c-0.522-0.178-0.949-0.447-1.288-0.809c-0.336-0.36-0.577-0.818-0.724-1.368c-0.144-0.552-0.197-1.197-0.159-1.938
	c0.036-0.705,0.161-1.34,0.376-1.906c0.213-0.566,0.504-1.046,0.876-1.44c0.368-0.394,0.809-0.694,1.319-0.902
	c0.513-0.207,1.083-0.311,1.712-0.311c0.662,0,1.225,0.098,1.687,0.293c0.459,0.196,0.833,0.467,1.116,0.813
	c0.285,0.347,0.484,0.757,0.603,1.23c0.117,0.475,0.161,0.989,0.131,1.546L73.137,12.688z M71.002,12.048
	c0.05-0.627-0.049-1.121-0.3-1.479c-0.251-0.359-0.659-0.537-1.221-0.537c-0.283,0-0.534,0.053-0.751,0.159
	c-0.214,0.106-0.398,0.25-0.547,0.432c-0.147,0.18-0.266,0.394-0.353,0.639c-0.088,0.246-0.145,0.508-0.17,0.786H71.002z"/>
<path fill="#38433D" d="M87.539,16.102c-0.014,0.261-0.042,0.461-0.082,0.6s-0.088,0.236-0.143,0.292
	c-0.057,0.058-0.139,0.108-0.245,0.152c-0.106,0.046-0.229,0.084-0.37,0.116c-0.141,0.031-0.293,0.058-0.458,0.074
	c-0.163,0.018-0.326,0.027-0.493,0.027c-0.444,0-0.826-0.057-1.146-0.168c-0.321-0.113-0.581-0.285-0.782-0.521
	c-0.201-0.232-0.342-0.528-0.426-0.884c-0.082-0.355-0.11-0.775-0.084-1.262l0.399-7.642c0.004-0.059,0.022-0.113,0.057-0.16
	c0.036-0.047,0.097-0.087,0.185-0.12c0.089-0.033,0.207-0.057,0.352-0.071c0.146-0.015,0.326-0.022,0.537-0.022
	c0.221,0,0.402,0.008,0.547,0.022c0.143,0.015,0.257,0.039,0.338,0.071c0.082,0.033,0.139,0.072,0.171,0.12
	c0.034,0.047,0.05,0.101,0.046,0.16l-0.093,1.769h1.725c0.059,0,0.109,0.015,0.153,0.044c0.044,0.03,0.076,0.079,0.103,0.146
	c0.026,0.068,0.044,0.161,0.054,0.279c0.007,0.12,0.007,0.265-0.002,0.437c-0.018,0.325-0.06,0.558-0.124,0.698
	c-0.068,0.139-0.157,0.208-0.27,0.208h-1.734L85.56,14.19c-0.022,0.433,0.026,0.757,0.152,0.975
	c0.125,0.215,0.362,0.322,0.712,0.322c0.118,0,0.224-0.009,0.321-0.031c0.097-0.021,0.182-0.044,0.258-0.071
	c0.074-0.025,0.139-0.049,0.19-0.07c0.051-0.02,0.097-0.03,0.139-0.03c0.036,0,0.068,0.011,0.101,0.03
	c0.03,0.021,0.055,0.063,0.068,0.125c0.015,0.063,0.026,0.146,0.036,0.253C87.546,15.8,87.546,15.935,87.539,16.102"/>
<path fill="#38433D" d="M96.97,12.839c-0.036,0.675-0.155,1.292-0.362,1.849c-0.209,0.557-0.503,1.038-0.885,1.441
	c-0.384,0.403-0.854,0.713-1.407,0.933c-0.559,0.218-1.201,0.328-1.93,0.328c-0.707,0-1.313-0.098-1.823-0.293
	c-0.513-0.196-0.929-0.481-1.254-0.854c-0.324-0.373-0.555-0.831-0.693-1.377c-0.137-0.545-0.186-1.167-0.149-1.867
	c0.036-0.675,0.157-1.292,0.368-1.853c0.211-0.56,0.505-1.04,0.889-1.439c0.382-0.399,0.849-0.71,1.403-0.929
	c0.553-0.22,1.195-0.329,1.924-0.329c0.711,0,1.322,0.096,1.833,0.289c0.511,0.193,0.929,0.476,1.25,0.849
	c0.32,0.373,0.549,0.832,0.688,1.377C96.957,11.51,97.006,12.135,96.97,12.839 M94.662,12.929c0.021-0.391,0.01-0.751-0.036-1.08
	c-0.045-0.329-0.135-0.614-0.27-0.858s-0.322-0.432-0.562-0.569c-0.239-0.136-0.544-0.204-0.918-0.204
	c-0.332,0-0.625,0.061-0.881,0.182c-0.257,0.122-0.469,0.3-0.64,0.534c-0.173,0.234-0.309,0.515-0.405,0.844
	c-0.099,0.329-0.157,0.703-0.178,1.125c-0.021,0.391-0.008,0.75,0.039,1.08c0.05,0.329,0.139,0.614,0.271,0.857
	c0.135,0.243,0.32,0.432,0.562,0.563c0.243,0.136,0.547,0.202,0.914,0.202c0.338,0,0.636-0.061,0.891-0.184
	c0.254-0.121,0.469-0.297,0.64-0.529c0.173-0.23,0.306-0.511,0.398-0.84C94.583,13.724,94.642,13.35,94.662,12.929"/>
<path fill="#DA5133" d="M24.028,6.41c-0.632-0.413-6.984-4.25-7.725-4.647c-1.073-0.576-2.479-0.856-4.119,0.012
	c-0.91,0.481-7.67,4.256-8.473,4.719C2.5,7.192,1.796,8.056,1.676,9.784c-0.079,1.122-0.6,8.598-0.666,9.532
	c-0.094,1.355,0.454,2.336,1.563,3.107c0.736,0.511,7.012,4.18,7.819,4.646c1.209,0.694,2.715,0.822,4.227-0.011
	c0.822-0.452,6.437-3.522,8.463-4.65c1.104-0.615,1.861-1.619,1.966-3.121c0.065-0.938,0.542-7.753,0.663-9.497
	C25.849,7.822,25.296,7.238,24.028,6.41 M8.576,16.246L8.576,16.246l0.003-0.03l0.084-0.811l0.003-0.031h0
	c0.115-1.015,0.598-1.767,1.25-2.278c-0.545-0.511-0.871-1.265-0.772-2.279H9.144l0.003-0.032l0.085-0.809l0.003-0.033h0.001
	c0.242-2.141,2.125-3.117,3.781-3.117h2.56c0.222,0,0.319,0.154,0.303,0.31c-0.014,0.13-0.089,0.85-0.109,1.042
	c-0.021,0.195-0.159,0.327-0.367,0.327h-2.562c-0.297,0-1.786,0.07-1.933,1.471l-0.085,0.809c-0.146,1.4,1.328,1.471,1.625,1.471
	h2.561h0.001c0.133,0,0.225,0.054,0.271,0.144c0.026,0.05,0.036,0.109,0.03,0.167c-0.001,0.005-0.002,0.012-0.002,0.017
	c-0.019,0.186-0.091,0.864-0.108,1.025c0,0.005-0.001,0.012-0.001,0.016c-0.005,0.058-0.028,0.117-0.065,0.167
	c-0.064,0.088-0.168,0.143-0.3,0.143h-0.001h-2.56c-0.297,0-1.787,0.071-1.934,1.471l-0.084,0.811
	c-0.147,1.399,1.327,1.472,1.624,1.472h2.562c0.208,0,0.319,0.131,0.299,0.326c-0.021,0.191-0.096,0.91-0.109,1.04
	c-0.018,0.157-0.146,0.312-0.368,0.312h-2.56C10.047,19.365,8.369,18.389,8.576,16.246 M18.166,12.613l-0.002,0.031l-0.086,0.811
	l-0.002,0.032h0c-0.116,1.014-0.598,1.766-1.252,2.279c0.546,0.51,0.872,1.263,0.773,2.278h0.001l-0.003,0.031l-0.085,0.81
	l-0.003,0.032h-0.001c-0.242,2.141-2.126,3.118-3.783,3.118h-2.56c-0.221,0-0.318-0.154-0.302-0.313
	c0.014-0.127,0.088-0.849,0.109-1.04c0.021-0.194,0.159-0.326,0.367-0.326h2.561c0.298,0,1.786-0.069,1.933-1.472l0.085-0.81
	c0.146-1.4-1.328-1.471-1.625-1.471h-2.56H11.73c-0.133,0-0.226-0.054-0.271-0.145c-0.025-0.05-0.036-0.107-0.029-0.166
	c0-0.004,0.001-0.012,0.002-0.017c0.019-0.187,0.09-0.864,0.106-1.024c0.001-0.006,0.002-0.013,0.002-0.017
	c0.006-0.06,0.029-0.117,0.065-0.167c0.063-0.089,0.167-0.143,0.3-0.143h0.001h2.56c0.296,0,1.785-0.07,1.933-1.471l0.084-0.811
	c0.146-1.4-1.328-1.471-1.625-1.471h-2.561c-0.208,0-0.318-0.13-0.299-0.326c0.021-0.192,0.095-0.913,0.109-1.041
	c0.016-0.157,0.145-0.311,0.367-0.311h2.56C16.693,9.496,18.372,10.472,18.166,12.613L18.166,12.613z"/>
<path fill="#38433D" d="M28.466,21.106l0.113-2.147h0.74c0.167,0,0.294,0.012,0.38,0.031c0.122,0.028,0.225,0.079,0.308,0.153
	c0.108,0.096,0.187,0.219,0.235,0.367c0.048,0.148,0.066,0.319,0.056,0.51c-0.008,0.163-0.035,0.308-0.08,0.434
	c-0.045,0.127-0.099,0.229-0.162,0.313c-0.064,0.082-0.133,0.146-0.206,0.193c-0.074,0.048-0.161,0.084-0.263,0.109
	c-0.101,0.024-0.217,0.036-0.347,0.036H28.466z M28.764,20.853h0.458c0.142,0,0.253-0.014,0.335-0.039
	c0.082-0.026,0.148-0.063,0.198-0.111c0.071-0.066,0.128-0.158,0.171-0.271c0.044-0.113,0.07-0.253,0.079-0.413
	c0.012-0.226-0.016-0.398-0.084-0.518c-0.066-0.122-0.152-0.203-0.256-0.243c-0.073-0.029-0.195-0.044-0.365-0.044h-0.451
	L28.764,20.853z"/>
<path fill="#38433D" d="M30.397,21.106l0.937-2.147h0.306l0.766,2.147h-0.324l-0.216-0.65h-0.897l-0.271,0.65H30.397z
	 M31.062,20.226h0.729l-0.193-0.595c-0.059-0.181-0.102-0.331-0.129-0.446c-0.035,0.139-0.081,0.275-0.137,0.411L31.062,20.226z"/>
<polygon fill="#38433D" points="32.956,21.106 33.056,19.213 32.349,19.213 32.363,18.959 34.065,18.959 34.051,19.213 
	33.34,19.213 33.24,21.106 "/>
<path fill="#38433D" d="M33.784,21.106l0.938-2.147h0.306l0.765,2.147h-0.324l-0.216-0.65h-0.897l-0.271,0.65H33.784z
	 M34.449,20.226h0.728l-0.192-0.595c-0.06-0.181-0.102-0.331-0.129-0.446c-0.035,0.139-0.081,0.275-0.138,0.411L34.449,20.226z"/>
<path fill="#38433D" d="M36.286,21.106l0.938-2.147h0.306l0.766,2.147h-0.324l-0.216-0.65h-0.898l-0.27,0.65H36.286z M36.952,20.226
	h0.728l-0.192-0.595c-0.06-0.181-0.103-0.331-0.129-0.446c-0.035,0.139-0.081,0.275-0.137,0.411L36.952,20.226z"/>
<polygon fill="#38433D" points="38.52,21.106 38.632,18.959 38.924,18.959 39.962,20.645 40.051,18.959 40.324,18.959 40.21,21.106 
	39.919,21.106 38.881,19.42 38.792,21.106 "/>
<path fill="#38433D" d="M40.452,21.106l0.938-2.147h0.307l0.765,2.147h-0.324l-0.215-0.65h-0.898l-0.27,0.65H40.452z M41.118,20.226
	h0.729l-0.193-0.595c-0.058-0.181-0.102-0.331-0.128-0.446c-0.034,0.139-0.081,0.275-0.137,0.411L41.118,20.226z"/>
<polygon fill="#38433D" points="42.676,21.106 42.79,18.959 43.074,18.959 42.974,20.853 44.031,20.853 44.018,21.106 "/>
<path fill="#38433D" d="M44.738,21.106l0.048-0.91l-0.762-1.237h0.346l0.39,0.647c0.071,0.121,0.138,0.243,0.199,0.363
	c0.07-0.112,0.155-0.239,0.254-0.379l0.449-0.632h0.332l-0.922,1.237l-0.048,0.91H44.738z"/>
<path fill="#38433D" d="M46.073,20.416l0.27-0.022c0.006,0.107,0.032,0.194,0.073,0.265c0.043,0.067,0.112,0.123,0.208,0.167
	c0.096,0.042,0.204,0.063,0.325,0.063c0.109,0,0.206-0.017,0.29-0.049c0.084-0.031,0.149-0.076,0.192-0.132
	c0.043-0.057,0.067-0.118,0.071-0.184c0.003-0.067-0.013-0.126-0.049-0.177s-0.098-0.092-0.187-0.126
	c-0.056-0.023-0.182-0.058-0.376-0.104c-0.195-0.048-0.331-0.094-0.408-0.134c-0.1-0.055-0.173-0.121-0.219-0.201
	c-0.045-0.079-0.066-0.169-0.06-0.267c0.005-0.108,0.041-0.21,0.107-0.304c0.067-0.094,0.161-0.166,0.281-0.216
	c0.121-0.048,0.253-0.073,0.398-0.073c0.159,0,0.298,0.027,0.417,0.078c0.119,0.051,0.208,0.126,0.269,0.227
	c0.06,0.1,0.089,0.212,0.087,0.338l-0.273,0.021c-0.008-0.136-0.051-0.238-0.132-0.309c-0.081-0.069-0.204-0.103-0.369-0.103
	c-0.172,0-0.299,0.03-0.381,0.094s-0.125,0.139-0.13,0.228c-0.004,0.077,0.021,0.142,0.074,0.191c0.051,0.05,0.192,0.1,0.421,0.152
	c0.228,0.052,0.384,0.099,0.468,0.137c0.122,0.058,0.21,0.13,0.265,0.219c0.055,0.09,0.079,0.19,0.073,0.306
	c-0.006,0.113-0.044,0.222-0.115,0.323c-0.071,0.101-0.168,0.18-0.294,0.234c-0.125,0.057-0.265,0.085-0.418,0.085
	c-0.193,0-0.355-0.028-0.484-0.086c-0.128-0.055-0.226-0.141-0.294-0.255C46.102,20.688,46.069,20.561,46.073,20.416"/>
<polygon fill="#38433D" points="48.183,21.106 48.296,18.959 48.58,18.959 48.466,21.106 "/>
<path fill="#38433D" d="M48.907,20.416l0.27-0.022c0.007,0.107,0.031,0.194,0.074,0.265c0.043,0.067,0.111,0.123,0.207,0.167
	c0.095,0.042,0.204,0.063,0.326,0.063c0.108,0,0.203-0.017,0.289-0.049c0.085-0.031,0.149-0.076,0.191-0.132
	c0.044-0.057,0.066-0.118,0.072-0.184c0.002-0.067-0.013-0.126-0.051-0.177c-0.036-0.051-0.098-0.092-0.187-0.126
	c-0.055-0.023-0.183-0.058-0.376-0.104c-0.195-0.048-0.33-0.094-0.406-0.134c-0.101-0.055-0.173-0.121-0.221-0.201
	c-0.044-0.079-0.065-0.169-0.061-0.267c0.007-0.108,0.042-0.21,0.108-0.304s0.161-0.166,0.281-0.216
	c0.12-0.048,0.253-0.073,0.396-0.073c0.161,0,0.3,0.027,0.418,0.078c0.119,0.051,0.209,0.126,0.27,0.227
	c0.059,0.1,0.088,0.212,0.086,0.338l-0.271,0.021c-0.008-0.136-0.052-0.238-0.136-0.309c-0.079-0.069-0.201-0.103-0.366-0.103
	c-0.173,0-0.299,0.03-0.381,0.094c-0.081,0.063-0.124,0.139-0.13,0.228c-0.004,0.077,0.021,0.142,0.073,0.191
	c0.052,0.05,0.192,0.1,0.421,0.152c0.228,0.052,0.383,0.099,0.467,0.137c0.122,0.058,0.211,0.13,0.266,0.219
	c0.056,0.09,0.08,0.19,0.072,0.306c-0.006,0.113-0.044,0.222-0.113,0.323c-0.072,0.101-0.17,0.18-0.297,0.234
	c-0.123,0.057-0.264,0.085-0.416,0.085c-0.195,0-0.355-0.028-0.484-0.086c-0.128-0.055-0.228-0.141-0.296-0.255
	C48.936,20.688,48.903,20.561,48.907,20.416"/>
<path fill="#38433D" d="M60.824,8.46c-1.114,0-1.969,0.366-2.588,0.854c-0.584-0.505-1.417-0.854-2.568-0.854
	c-2.336,0-3.832,0.959-3.942,3.051l-0.291,5.364c-0.004,0.061,0.014,0.115,0.046,0.162c0.036,0.046,0.095,0.084,0.179,0.115
	c0.085,0.031,0.203,0.054,0.353,0.07c0.15,0.015,0.341,0.022,0.568,0.022c0.222,0,0.41-0.008,0.563-0.022
	c0.153-0.017,0.271-0.039,0.358-0.07c0.088-0.031,0.152-0.069,0.192-0.115c0.039-0.047,0.061-0.102,0.064-0.162l0.273-5.121
	c0.055-1.064,0.495-1.482,1.522-1.482c1.03,0,1.442,0.418,1.387,1.482l-0.285,5.134c-0.001,0.06,0.014,0.109,0.046,0.155
	c0.034,0.045,0.091,0.083,0.173,0.113s0.195,0.05,0.34,0.067c0.145,0.013,0.329,0.021,0.549,0.021c0.215,0,0.394-0.008,0.542-0.021
	c0.146-0.018,0.262-0.037,0.347-0.067c0.084-0.03,0.146-0.068,0.183-0.113c0.038-0.046,0.059-0.096,0.063-0.155l0.283-5.292
	c0.084-0.94,0.559-1.325,1.533-1.325c1.029,0,1.424,0.418,1.369,1.482l-0.02,0.349c0,0.002-0.004,0.005-0.004,0.008l-0.248,4.76
	c-0.002,0.061,0.011,0.117,0.047,0.163c0.036,0.047,0.095,0.086,0.183,0.117c0.085,0.031,0.203,0.055,0.355,0.07
	c0.151,0.016,0.344,0.023,0.573,0.023c0.226,0,0.414-0.008,0.567-0.023c0.152-0.016,0.275-0.039,0.363-0.07
	c0.089-0.031,0.153-0.07,0.193-0.117c0.04-0.046,0.061-0.103,0.064-0.163l0.291-5.36C64.557,9.419,63.162,8.46,60.824,8.46"/>
<path fill="#38433D" d="M38.153,8.46c-1.115,0-1.971,0.366-2.589,0.854c-0.584-0.505-1.419-0.854-2.57-0.854
	c-2.335,0-3.832,0.959-3.941,3.051l-0.292,5.364c-0.002,0.061,0.012,0.115,0.047,0.162c0.035,0.046,0.094,0.084,0.18,0.115
	c0.084,0.031,0.202,0.054,0.353,0.07c0.15,0.015,0.339,0.022,0.568,0.022c0.222,0,0.409-0.008,0.561-0.022
	c0.152-0.017,0.272-0.039,0.361-0.07c0.087-0.031,0.151-0.069,0.19-0.115c0.039-0.047,0.061-0.102,0.063-0.162l0.273-5.121
	c0.056-1.064,0.496-1.482,1.524-1.482c1.029,0,1.442,0.418,1.387,1.482l-0.285,5.134c-0.003,0.06,0.012,0.109,0.045,0.155
	c0.033,0.045,0.09,0.083,0.172,0.113s0.195,0.05,0.341,0.067c0.145,0.013,0.328,0.021,0.548,0.021c0.214,0,0.395-0.008,0.542-0.021
	c0.146-0.018,0.263-0.037,0.348-0.067s0.147-0.068,0.184-0.113c0.037-0.046,0.059-0.096,0.062-0.155l0.282-5.292
	c0.084-0.94,0.558-1.325,1.534-1.325c1.028,0,1.424,0.418,1.369,1.482l-0.019,0.349c-0.001,0.002-0.003,0.005-0.003,0.008
	l-0.25,4.76c-0.002,0.061,0.012,0.117,0.047,0.163c0.036,0.047,0.095,0.086,0.181,0.117c0.086,0.031,0.205,0.055,0.357,0.07
	c0.153,0.016,0.343,0.023,0.574,0.023c0.224,0,0.413-0.008,0.567-0.023c0.153-0.016,0.274-0.039,0.364-0.07
	c0.089-0.031,0.153-0.07,0.192-0.117c0.04-0.046,0.062-0.103,0.065-0.163l0.29-5.36C41.885,9.419,40.489,8.46,38.153,8.46"/>
<path fill="#38433D" d="M78.357,8.464c-2.314,0-3.792,0.936-3.9,2.978l-0.279,5.439c-0.002,0.06,0.014,0.111,0.048,0.158
	c0.034,0.045,0.091,0.084,0.175,0.114c0.083,0.029,0.199,0.053,0.345,0.068c0.148,0.014,0.335,0.022,0.559,0.022
	c0.219,0,0.401-0.009,0.551-0.022c0.15-0.016,0.267-0.039,0.354-0.068c0.085-0.03,0.148-0.069,0.188-0.114
	c0.037-0.047,0.059-0.099,0.063-0.158l0.266-5.2c0.055-1.039,0.503-1.447,1.523-1.447c1.021,0,1.426,0.408,1.371,1.447l-0.293,5.188
	c-0.004,0.062,0.012,0.117,0.048,0.164s0.095,0.085,0.181,0.117c0.085,0.031,0.205,0.055,0.356,0.07
	c0.152,0.015,0.344,0.023,0.574,0.023c0.224,0,0.414-0.009,0.567-0.023c0.152-0.016,0.273-0.039,0.365-0.07
	c0.087-0.032,0.151-0.07,0.191-0.117s0.061-0.103,0.064-0.164l0.273-5.428C82.054,9.4,80.673,8.464,78.357,8.464"/>
</svg>
