<?xml version="1.0" encoding="utf-8"?>
<!-- Generator: Adobe Illustrator 15.0.0, SVG Export Plug-In . SVG Version: 6.00 Build 0)  -->
<!DOCTYPE svg PUBLIC "-//W3C//DTD SVG 1.1//EN" "http://www.w3.org/Graphics/SVG/1.1/DTD/svg11.dtd">
<svg version="1.1" id="Capa_1" xmlns="http://www.w3.org/2000/svg" xmlns:xlink="http://www.w3.org/1999/xlink" x="0px" y="0px"
	 width="287px" height="78px" viewBox="0 0 287 78" enable-background="new 0 0 287 78" xml:space="preserve">
<path fill="#38433D" d="M288.794,552.219c-0.04,0.814-0.255,1.418-0.64,1.807c-0.381,0.389-0.893,0.582-1.528,0.582h-14.415
	c-0.053,1.01,0.02,1.926,0.214,2.748c0.196,0.824,0.541,1.523,1.032,2.098c0.49,0.574,1.143,1.016,1.947,1.314
	c0.807,0.301,1.787,0.451,2.938,0.451c1.167,0,2.197-0.086,3.091-0.252c0.895-0.168,1.67-0.354,2.326-0.559
	c0.655-0.203,1.202-0.389,1.635-0.557c0.434-0.168,0.783-0.252,1.049-0.252c0.162,0,0.289,0.031,0.395,0.094
	c0.102,0.061,0.186,0.17,0.247,0.33c0.062,0.158,0.099,0.385,0.11,0.678c0.014,0.291,0.004,0.66-0.017,1.102
	c-0.022,0.389-0.049,0.721-0.081,0.996c-0.031,0.273-0.07,0.508-0.115,0.703c-0.045,0.193-0.106,0.357-0.185,0.49
	s-0.177,0.262-0.298,0.387c-0.124,0.121-0.445,0.291-0.969,0.502c-0.526,0.213-1.192,0.42-1.998,0.625
	c-0.809,0.203-1.729,0.379-2.762,0.531c-1.037,0.148-2.137,0.225-3.306,0.225c-2.106,0-3.937-0.266-5.493-0.797
	c-1.556-0.531-2.836-1.334-3.842-2.416c-1.005-1.078-1.725-2.441-2.162-4.086c-0.436-1.646-0.593-3.576-0.479-5.789
	c0.111-2.105,0.484-4.002,1.121-5.693c0.638-1.689,1.509-3.123,2.615-4.299c1.105-1.178,2.422-2.076,3.949-2.697
	c1.529-0.617,3.23-0.928,5.107-0.928c1.98,0,3.66,0.293,5.037,0.877s2.488,1.393,3.338,2.428c0.848,1.037,1.447,2.262,1.798,3.676
	c0.35,1.418,0.483,2.955,0.394,4.621L288.794,552.219z M282.419,550.307c0.149-1.875-0.147-3.348-0.896-4.418
	c-0.75-1.07-1.969-1.605-3.647-1.605c-0.851,0-1.597,0.158-2.242,0.477s-1.19,0.748-1.632,1.289
	c-0.446,0.539-0.797,1.176-1.059,1.91c-0.26,0.734-0.429,1.518-0.506,2.348H282.419z"/>
<path fill="#38433D" d="M356.11,552.219c-0.041,0.814-0.256,1.418-0.639,1.807c-0.382,0.389-0.893,0.582-1.53,0.582h-14.413
	c-0.055,1.01,0.017,1.926,0.213,2.748c0.196,0.824,0.541,1.523,1.031,2.098c0.491,0.574,1.142,1.016,1.948,1.314
	c0.808,0.301,1.787,0.451,2.938,0.451c1.166,0,2.196-0.086,3.091-0.252c0.893-0.168,1.669-0.354,2.325-0.559
	c0.656-0.203,1.203-0.389,1.635-0.557c0.435-0.168,0.784-0.252,1.049-0.252c0.161,0,0.291,0.031,0.395,0.094
	c0.103,0.061,0.185,0.17,0.247,0.33c0.063,0.158,0.1,0.385,0.111,0.678c0.012,0.291,0.006,0.66-0.018,1.102
	c-0.021,0.389-0.048,0.721-0.079,0.996c-0.032,0.273-0.071,0.508-0.116,0.703c-0.046,0.193-0.107,0.357-0.186,0.49
	s-0.177,0.262-0.299,0.387c-0.121,0.121-0.444,0.291-0.967,0.502c-0.526,0.213-1.192,0.42-1.999,0.625
	c-0.807,0.203-1.729,0.379-2.761,0.531c-1.036,0.148-2.137,0.225-3.306,0.225c-2.106,0-3.938-0.266-5.493-0.797
	c-1.557-0.531-2.836-1.334-3.843-2.416c-1.004-1.078-1.725-2.441-2.161-4.086c-0.436-1.646-0.594-3.576-0.478-5.789
	c0.108-2.105,0.482-4.002,1.121-5.693c0.636-1.689,1.507-3.123,2.613-4.299c1.106-1.178,2.421-2.076,3.95-2.697
	c1.528-0.617,3.23-0.928,5.107-0.928c1.98,0,3.66,0.293,5.037,0.877c1.375,0.584,2.487,1.393,3.337,2.428
	c0.848,1.037,1.448,2.262,1.798,3.676c0.352,1.418,0.482,2.955,0.394,4.621L356.11,552.219z M349.734,550.307
	c0.149-1.875-0.146-3.348-0.896-4.418s-1.967-1.605-3.646-1.605c-0.85,0-1.597,0.158-2.241,0.477
	c-0.646,0.318-1.189,0.748-1.632,1.289c-0.446,0.539-0.798,1.176-1.058,1.91c-0.261,0.734-0.43,1.518-0.508,2.348H349.734z"/>
<path fill="#38433D" d="M399.13,562.414c-0.042,0.777-0.122,1.375-0.241,1.789c-0.119,0.418-0.263,0.709-0.431,0.877
	c-0.168,0.17-0.412,0.32-0.728,0.453c-0.318,0.133-0.686,0.248-1.107,0.342c-0.421,0.098-0.874,0.174-1.365,0.227
	c-0.489,0.053-0.981,0.08-1.478,0.08c-1.325,0-2.47-0.168-3.424-0.504c-0.955-0.336-1.734-0.852-2.335-1.553
	c-0.6-0.699-1.024-1.578-1.27-2.641c-0.243-1.063-0.33-2.318-0.252-3.771l1.197-22.83c0.008-0.174,0.065-0.334,0.17-0.475
	c0.104-0.143,0.289-0.262,0.549-0.359c0.263-0.098,0.612-0.168,1.048-0.213c0.437-0.043,0.973-0.066,1.608-0.066
	c0.655,0,1.198,0.023,1.63,0.066c0.431,0.045,0.769,0.115,1.01,0.213c0.245,0.098,0.414,0.217,0.514,0.359
	c0.1,0.141,0.145,0.301,0.134,0.475l-0.277,5.285h5.15c0.176,0,0.329,0.045,0.458,0.133s0.23,0.234,0.309,0.438
	s0.129,0.482,0.156,0.836c0.023,0.354,0.023,0.789-0.004,1.301c-0.051,0.973-0.175,1.668-0.372,2.084
	c-0.2,0.416-0.468,0.623-0.804,0.623h-5.177l-0.582,11.123c-0.066,1.293,0.084,2.262,0.459,2.906
	c0.372,0.646,1.081,0.969,2.124,0.969c0.354,0,0.673-0.029,0.961-0.092c0.287-0.063,0.541-0.133,0.768-0.213
	c0.225-0.08,0.416-0.15,0.568-0.213c0.153-0.061,0.292-0.09,0.415-0.09c0.108,0,0.207,0.029,0.301,0.09
	c0.095,0.063,0.164,0.188,0.207,0.373s0.078,0.438,0.107,0.756C399.153,561.51,399.153,561.918,399.13,562.414"/>
<path fill="#38433D" d="M427.302,552.67c-0.104,2.018-0.467,3.857-1.084,5.521c-0.62,1.666-1.5,3.098-2.643,4.301
	c-1.142,1.203-2.545,2.133-4.207,2.789c-1.663,0.652-3.582,0.98-5.76,0.98c-2.106,0-3.921-0.291-5.448-0.875
	c-1.529-0.584-2.773-1.436-3.742-2.549s-1.658-2.484-2.068-4.115c-0.409-1.629-0.56-3.486-0.451-5.576
	c0.106-2.016,0.472-3.861,1.101-5.533c0.628-1.672,1.513-3.107,2.655-4.299c1.142-1.195,2.538-2.121,4.193-2.775
	c1.653-0.656,3.569-0.982,5.746-0.982c2.123,0,3.948,0.287,5.476,0.861c1.526,0.576,2.77,1.422,3.729,2.537
	c0.959,1.113,1.645,2.486,2.056,4.113C427.261,548.697,427.414,550.564,427.302,552.67 M420.412,552.938
	c0.063-1.17,0.026-2.244-0.108-3.227s-0.404-1.834-0.81-2.563c-0.404-0.727-0.964-1.291-1.675-1.699
	c-0.713-0.406-1.628-0.609-2.741-0.609c-0.993,0-1.868,0.182-2.632,0.543c-0.763,0.363-1.399,0.895-1.914,1.594
	s-0.917,1.539-1.207,2.521c-0.293,0.982-0.469,2.102-0.534,3.357c-0.062,1.17-0.021,2.244,0.121,3.227
	c0.146,0.98,0.413,1.836,0.808,2.561c0.397,0.727,0.957,1.289,1.68,1.686c0.722,0.398,1.631,0.6,2.729,0.6
	c1.009,0,1.894-0.182,2.656-0.545s1.401-0.889,1.914-1.58c0.514-0.689,0.911-1.527,1.192-2.51
	C420.174,555.311,420.348,554.193,420.412,552.938"/>
<path fill="#DA5133" d="M209.419,533.465c-1.89-1.234-20.864-12.697-23.077-13.885c-3.205-1.717-7.406-2.555-12.302,0.037
	c-2.718,1.439-22.913,12.715-25.312,14.098c-3.614,2.086-5.717,4.664-6.077,9.83c-0.235,3.35-1.794,25.68-1.99,28.473
	c-0.281,4.047,1.356,6.979,4.667,9.279c2.202,1.529,20.946,12.484,23.359,13.875c3.611,2.076,8.109,2.457,12.627-0.029
	c2.455-1.352,19.227-10.52,25.279-13.891c3.297-1.838,5.56-4.838,5.873-9.324c0.196-2.805,1.618-23.158,1.98-28.367
	C214.858,537.682,213.208,535.938,209.419,533.465 M163.26,562.848L163.26,562.848l0.008-0.092l0.254-2.422l0.01-0.094h0.002
	c0.342-3.029,1.785-5.277,3.734-6.807c-1.629-1.525-2.601-3.775-2.307-6.807h-0.003l0.011-0.094l0.252-2.416l0.01-0.098h0.005
	c0.721-6.395,6.348-9.311,11.295-9.311h7.647c0.662,0,0.951,0.461,0.901,0.926c-0.041,0.387-0.265,2.537-0.325,3.111
	c-0.062,0.58-0.475,0.975-1.097,0.975h-7.651c-0.887,0-5.336,0.211-5.772,4.396l-0.255,2.416c-0.438,4.184,3.966,4.396,4.852,4.396
	h7.646h0.004c0.398,0,0.675,0.16,0.809,0.428c0.08,0.148,0.107,0.324,0.092,0.498c-0.004,0.014-0.007,0.033-0.007,0.049
	c-0.057,0.553-0.271,2.58-0.321,3.061c0,0.016-0.002,0.035-0.004,0.047c-0.017,0.176-0.084,0.35-0.195,0.502
	c-0.19,0.264-0.502,0.426-0.896,0.426h-0.004h-7.646c-0.888,0-5.336,0.211-5.774,4.395l-0.253,2.422
	c-0.439,4.182,3.965,4.395,4.852,4.395h7.651c0.622,0,0.953,0.393,0.894,0.975c-0.061,0.574-0.287,2.721-0.326,3.107
	c-0.051,0.469-0.437,0.93-1.099,0.93h-7.646C167.657,572.162,162.643,569.244,163.26,562.848 M191.907,551.992l-0.008,0.094
	l-0.257,2.42l-0.008,0.094h-0.002c-0.344,3.029-1.787,5.277-3.738,6.807c1.633,1.525,2.604,3.775,2.31,6.807h0.003l-0.009,0.092
	l-0.255,2.42l-0.008,0.094h-0.004c-0.722,6.396-6.349,9.314-11.297,9.314h-7.647c-0.66,0-0.95-0.459-0.902-0.93
	c0.042-0.385,0.265-2.535,0.328-3.107c0.06-0.582,0.476-0.977,1.095-0.977h7.651c0.888,0,5.336-0.209,5.774-4.395l0.254-2.42
	c0.437-4.182-3.967-4.393-4.853-4.393h-7.647h-0.004c-0.398,0-0.674-0.16-0.809-0.43c-0.076-0.148-0.107-0.324-0.088-0.498
	c0-0.014,0.002-0.033,0.005-0.047c0.056-0.557,0.269-2.584,0.319-3.063c0.003-0.016,0.004-0.037,0.006-0.047
	c0.018-0.176,0.085-0.35,0.193-0.5c0.191-0.268,0.5-0.428,0.898-0.428h0.006h7.646c0.885,0,5.334-0.211,5.771-4.395l0.254-2.42
	c0.438-4.184-3.965-4.396-4.853-4.396h-7.649c-0.623,0-0.953-0.391-0.895-0.973c0.063-0.574,0.286-2.725,0.328-3.109
	c0.047-0.469,0.434-0.928,1.095-0.928h7.646c4.949,0,9.965,2.916,9.347,9.313H191.907z"/>
<path fill="#38433D" d="M222.677,577.361l0.341-6.412h2.209c0.498,0,0.877,0.031,1.135,0.094c0.363,0.082,0.67,0.236,0.918,0.459
	c0.322,0.285,0.556,0.65,0.701,1.094c0.143,0.445,0.199,0.953,0.168,1.525c-0.024,0.486-0.104,0.918-0.237,1.295
	s-0.296,0.688-0.487,0.934s-0.396,0.439-0.613,0.582c-0.221,0.141-0.48,0.248-0.783,0.322c-0.303,0.072-0.649,0.107-1.037,0.107
	H222.677z M223.566,576.605h1.369c0.422,0,0.756-0.039,1.002-0.117c0.243-0.08,0.44-0.189,0.592-0.334
	c0.211-0.199,0.383-0.471,0.513-0.811s0.208-0.752,0.233-1.236c0.035-0.67-0.047-1.186-0.248-1.547
	c-0.201-0.359-0.455-0.602-0.765-0.723c-0.222-0.088-0.586-0.131-1.091-0.131h-1.348L223.566,576.605z"/>
<path fill="#38433D" d="M228.442,577.361l2.801-6.412h0.914l2.286,6.412h-0.967l-0.646-1.941h-2.682l-0.808,1.941H228.442z
	 M230.432,574.729h2.174l-0.575-1.775c-0.177-0.537-0.304-0.982-0.386-1.328c-0.103,0.41-0.239,0.818-0.409,1.223L230.432,574.729z"
	/>
<polygon fill="#38433D" points="236.088,577.361 236.387,571.707 234.274,571.707 234.314,570.949 239.397,570.949 239.357,571.707 
	237.235,571.707 236.937,577.361 "/>
<path fill="#38433D" d="M238.559,577.361l2.802-6.412h0.914l2.286,6.412h-0.967l-0.646-1.941h-2.683l-0.807,1.941H238.559z
	 M240.549,574.729h2.174l-0.575-1.775c-0.177-0.537-0.304-0.982-0.386-1.328c-0.103,0.41-0.239,0.818-0.41,1.223L240.549,574.729z"
	/>
<path fill="#38433D" d="M246.035,577.361l2.801-6.412h0.914l2.286,6.412h-0.968l-0.645-1.941h-2.682l-0.807,1.941H246.035z
	 M248.023,574.729h2.174l-0.574-1.775c-0.176-0.537-0.305-0.982-0.385-1.328c-0.104,0.41-0.24,0.818-0.41,1.223L248.023,574.729z"/>
<polygon fill="#38433D" points="252.705,577.361 253.043,570.949 253.914,570.949 257.016,575.984 257.283,570.949 258.096,570.949 
	257.757,577.361 256.887,577.361 253.785,572.324 253.518,577.361 "/>
<path fill="#38433D" d="M258.479,577.361l2.801-6.412h0.914l2.286,6.412h-0.967l-0.646-1.941h-2.682l-0.808,1.941H258.479z
	 M260.469,574.729h2.174l-0.575-1.775c-0.177-0.537-0.304-0.982-0.386-1.328c-0.103,0.41-0.239,0.818-0.409,1.223L260.469,574.729z"
	/>
<polygon fill="#38433D" points="265.123,577.361 265.461,570.949 266.311,570.949 266.012,576.605 269.17,576.605 269.129,577.361 
	"/>
<path fill="#38433D" d="M271.281,577.361l0.145-2.715l-2.275-3.697h1.031l1.162,1.934c0.214,0.361,0.412,0.725,0.594,1.084
	c0.21-0.334,0.465-0.713,0.76-1.131l1.342-1.887h0.99l-2.756,3.697l-0.144,2.715H271.281z"/>
<path fill="#38433D" d="M275.27,575.301l0.805-0.068c0.021,0.32,0.096,0.584,0.223,0.789s0.334,0.371,0.619,0.5
	c0.285,0.127,0.609,0.189,0.974,0.189c0.323,0,0.612-0.049,0.864-0.145c0.254-0.096,0.445-0.229,0.576-0.396
	c0.129-0.168,0.199-0.35,0.211-0.549c0.01-0.201-0.039-0.377-0.148-0.527s-0.294-0.275-0.559-0.379
	c-0.168-0.066-0.543-0.17-1.125-0.311c-0.58-0.143-0.986-0.275-1.215-0.402c-0.299-0.158-0.517-0.357-0.654-0.598
	c-0.137-0.236-0.197-0.502-0.183-0.797c0.017-0.322,0.125-0.627,0.323-0.906c0.199-0.283,0.479-0.496,0.839-0.641
	c0.36-0.146,0.757-0.221,1.188-0.221c0.476,0,0.891,0.078,1.246,0.23c0.354,0.152,0.621,0.379,0.802,0.676
	c0.18,0.297,0.266,0.635,0.261,1.01l-0.816,0.063c-0.022-0.406-0.153-0.713-0.396-0.92c-0.24-0.205-0.607-0.311-1.1-0.311
	c-0.515,0-0.894,0.096-1.137,0.283c-0.244,0.188-0.375,0.414-0.39,0.68c-0.013,0.229,0.062,0.42,0.22,0.568
	c0.155,0.148,0.574,0.301,1.256,0.457s1.147,0.293,1.397,0.408c0.364,0.174,0.628,0.391,0.792,0.654
	c0.164,0.266,0.236,0.568,0.218,0.912c-0.019,0.342-0.133,0.664-0.343,0.965c-0.212,0.303-0.504,0.537-0.88,0.705
	c-0.375,0.166-0.791,0.25-1.249,0.25c-0.58,0-1.063-0.084-1.445-0.252c-0.383-0.17-0.677-0.424-0.882-0.764
	C275.355,576.115,275.258,575.73,275.27,575.301"/>
<polygon fill="#38433D" points="281.57,577.361 281.908,570.949 282.757,570.949 282.418,577.361 "/>
<path fill="#38433D" d="M283.733,575.301l0.806-0.068c0.021,0.32,0.094,0.584,0.221,0.789c0.129,0.205,0.334,0.371,0.619,0.5
	c0.285,0.127,0.61,0.189,0.975,0.189c0.324,0,0.611-0.049,0.865-0.145c0.252-0.096,0.445-0.229,0.574-0.396s0.2-0.35,0.211-0.549
	c0.01-0.201-0.039-0.377-0.147-0.527s-0.294-0.275-0.558-0.379c-0.168-0.066-0.545-0.17-1.125-0.311
	c-0.582-0.143-0.987-0.275-1.217-0.402c-0.298-0.158-0.516-0.357-0.652-0.598c-0.137-0.236-0.198-0.502-0.184-0.797
	c0.018-0.322,0.125-0.627,0.323-0.906c0.199-0.283,0.479-0.496,0.839-0.641c0.36-0.146,0.758-0.221,1.188-0.221
	c0.477,0,0.892,0.078,1.246,0.23c0.355,0.152,0.621,0.379,0.803,0.676c0.18,0.297,0.266,0.635,0.261,1.01l-0.817,0.063
	c-0.021-0.406-0.152-0.713-0.396-0.92c-0.24-0.205-0.606-0.311-1.101-0.311c-0.514,0-0.893,0.096-1.137,0.283
	s-0.373,0.414-0.389,0.68c-0.012,0.229,0.063,0.42,0.22,0.568c0.155,0.148,0.574,0.301,1.257,0.457
	c0.681,0.156,1.146,0.293,1.396,0.408c0.363,0.174,0.628,0.391,0.792,0.654c0.164,0.266,0.237,0.568,0.218,0.912
	c-0.018,0.342-0.133,0.664-0.343,0.965c-0.212,0.303-0.504,0.537-0.88,0.705c-0.375,0.166-0.791,0.25-1.249,0.25
	c-0.58,0-1.062-0.084-1.445-0.252c-0.383-0.17-0.677-0.424-0.882-0.764C283.819,576.115,283.723,575.73,283.733,575.301"/>
<path fill="#38433D" d="M319.336,539.588c-3.331,0-5.887,1.094-7.733,2.551c-1.745-1.508-4.239-2.551-7.675-2.551
	c-6.979,0-11.447,2.865-11.775,9.111l-0.869,16.023c-0.01,0.186,0.039,0.344,0.14,0.484c0.104,0.139,0.282,0.254,0.535,0.346
	c0.254,0.096,0.603,0.16,1.054,0.209c0.448,0.047,1.014,0.068,1.695,0.068c0.666,0,1.224-0.021,1.678-0.068
	c0.456-0.049,0.813-0.113,1.075-0.209c0.263-0.092,0.453-0.207,0.571-0.346c0.117-0.141,0.183-0.299,0.19-0.484l0.816-15.295
	c0.166-3.176,1.481-4.426,4.553-4.426s4.307,1.25,4.14,4.426l-0.85,15.334c-0.009,0.18,0.037,0.332,0.134,0.467
	c0.102,0.135,0.273,0.246,0.518,0.334c0.243,0.092,0.582,0.154,1.018,0.203c0.432,0.043,0.978,0.064,1.636,0.064
	c0.642,0,1.181-0.021,1.618-0.064c0.438-0.049,0.783-0.111,1.039-0.203c0.252-0.088,0.438-0.199,0.547-0.334
	c0.115-0.135,0.176-0.287,0.188-0.467l0.843-15.803c0.252-2.809,1.666-3.957,4.58-3.957c3.072,0,4.255,1.25,4.089,4.426
	l-0.057,1.043c-0.001,0.008-0.009,0.016-0.009,0.023l-0.744,14.219c-0.009,0.184,0.035,0.348,0.142,0.486
	c0.104,0.141,0.284,0.258,0.539,0.352c0.258,0.094,0.612,0.162,1.065,0.209c0.454,0.049,1.025,0.07,1.715,0.07
	c0.669,0,1.233-0.021,1.692-0.07c0.459-0.047,0.821-0.115,1.087-0.209s0.459-0.211,0.576-0.352c0.118-0.139,0.185-0.303,0.194-0.486
	l0.865-16.014C330.482,542.453,326.313,539.588,319.336,539.588"/>
<path fill="#38433D" d="M251.612,539.588c-3.332,0-5.888,1.094-7.733,2.551c-1.744-1.508-4.24-2.551-7.676-2.551
	c-6.976,0-11.447,2.865-11.775,9.111l-0.869,16.023c-0.008,0.186,0.037,0.344,0.14,0.484c0.104,0.139,0.282,0.254,0.536,0.346
	c0.253,0.096,0.604,0.16,1.054,0.209c0.448,0.047,1.015,0.068,1.696,0.068c0.663,0,1.223-0.021,1.677-0.068
	c0.454-0.049,0.812-0.113,1.076-0.209c0.263-0.092,0.453-0.207,0.569-0.346c0.119-0.141,0.183-0.299,0.191-0.484l0.815-15.295
	c0.167-3.176,1.481-4.426,4.554-4.426c3.071,0,4.307,1.25,4.141,4.426l-0.851,15.334c-0.01,0.18,0.036,0.332,0.134,0.467
	c0.102,0.135,0.272,0.246,0.516,0.334c0.244,0.092,0.584,0.154,1.018,0.203c0.434,0.043,0.98,0.064,1.637,0.064
	c0.642,0,1.18-0.021,1.618-0.064c0.438-0.049,0.783-0.111,1.038-0.203c0.253-0.088,0.438-0.199,0.549-0.334
	c0.114-0.135,0.178-0.287,0.187-0.467l0.843-15.803c0.252-2.809,1.666-3.957,4.581-3.957c3.071,0,4.255,1.25,4.089,4.426
	l-0.057,1.043c-0.002,0.008-0.008,0.016-0.008,0.023l-0.746,14.219c-0.01,0.184,0.037,0.348,0.142,0.486
	c0.104,0.141,0.284,0.258,0.54,0.352c0.257,0.094,0.611,0.162,1.064,0.209c0.455,0.049,1.025,0.07,1.715,0.07
	c0.67,0,1.234-0.021,1.693-0.07c0.459-0.047,0.82-0.115,1.088-0.209c0.265-0.094,0.457-0.211,0.575-0.352
	c0.118-0.139,0.185-0.303,0.193-0.486l0.866-16.014C262.758,542.453,258.59,539.588,251.612,539.588"/>
<path fill="#38433D" d="M371.708,539.598c-6.916,0-11.334,2.797-11.653,8.896l-0.832,16.246c-0.008,0.18,0.037,0.338,0.138,0.471
	c0.102,0.137,0.274,0.254,0.526,0.344c0.247,0.092,0.591,0.158,1.033,0.205c0.439,0.043,0.994,0.066,1.663,0.066
	c0.653,0,1.199-0.023,1.646-0.066c0.445-0.047,0.796-0.113,1.058-0.205c0.257-0.09,0.442-0.207,0.559-0.344
	c0.114-0.133,0.177-0.291,0.188-0.471l0.798-15.533c0.163-3.102,1.499-4.322,4.549-4.322c3.051,0,4.258,1.221,4.094,4.322
	l-0.874,15.5c-0.009,0.186,0.038,0.35,0.142,0.488c0.106,0.141,0.284,0.256,0.542,0.352c0.256,0.094,0.609,0.162,1.064,0.209
	c0.453,0.047,1.025,0.07,1.714,0.07c0.671,0,1.236-0.023,1.695-0.07c0.458-0.047,0.82-0.115,1.087-0.209
	c0.267-0.096,0.457-0.211,0.576-0.352c0.118-0.139,0.184-0.303,0.194-0.488l0.813-16.213
	C382.746,542.395,378.623,539.598,371.708,539.598"/>
<path fill="#38433D" d="M147.308,33.809c-0.039,0.782-0.246,1.362-0.615,1.735c-0.365,0.374-0.856,0.56-1.468,0.56h-13.845
	c-0.051,0.969,0.019,1.849,0.206,2.639c0.188,0.792,0.52,1.462,0.991,2.015c0.471,0.552,1.097,0.975,1.871,1.262
	c0.774,0.289,1.715,0.434,2.822,0.434c1.121,0,2.11-0.082,2.969-0.242c0.859-0.161,1.604-0.339,2.234-0.536
	c0.629-0.195,1.154-0.374,1.57-0.535c0.417-0.16,0.752-0.242,1.007-0.242c0.156,0,0.277,0.03,0.38,0.091
	c0.097,0.059,0.178,0.164,0.237,0.316c0.059,0.153,0.094,0.37,0.105,0.651c0.013,0.279,0.004,0.635-0.016,1.059
	c-0.022,0.374-0.047,0.691-0.078,0.956c-0.03,0.263-0.067,0.488-0.11,0.675c-0.043,0.188-0.103,0.344-0.178,0.472
	s-0.17,0.251-0.286,0.371c-0.119,0.117-0.428,0.279-0.931,0.482c-0.506,0.204-1.145,0.404-1.919,0.6
	c-0.775,0.197-1.661,0.365-2.652,0.511c-0.995,0.143-2.052,0.216-3.174,0.216c-2.023,0-3.782-0.254-5.276-0.765
	c-1.495-0.511-2.724-1.282-3.69-2.32c-0.965-1.037-1.657-2.346-2.077-3.925c-0.417-1.582-0.569-3.435-0.459-5.561
	c0.106-2.021,0.464-3.844,1.077-5.468c0.612-1.623,1.449-3,2.511-4.129c1.062-1.131,2.326-1.993,3.793-2.59
	c1.469-0.593,3.103-0.891,4.906-0.891c1.902,0,3.516,0.281,4.837,0.842c1.323,0.562,2.391,1.338,3.207,2.333
	c0.814,0.995,1.391,2.171,1.727,3.53c0.336,1.361,0.465,2.838,0.378,4.438L147.308,33.809z M141.184,31.973
	c0.143-1.802-0.142-3.216-0.86-4.243c-0.72-1.029-1.891-1.543-3.503-1.543c-0.817,0-1.534,0.153-2.153,0.458
	c-0.619,0.306-1.143,0.718-1.567,1.237c-0.429,0.518-0.765,1.129-1.016,1.835c-0.25,0.705-0.412,1.458-0.487,2.255H141.184z"/>
<path fill="#38433D" d="M211.963,33.809c-0.04,0.782-0.246,1.362-0.614,1.735c-0.366,0.374-0.856,0.56-1.47,0.56h-13.844
	c-0.052,0.969,0.017,1.849,0.205,2.639c0.188,0.792,0.52,1.462,0.99,2.015c0.473,0.552,1.097,0.975,1.871,1.262
	c0.776,0.289,1.717,0.434,2.822,0.434c1.12,0,2.11-0.082,2.969-0.242c0.857-0.161,1.603-0.339,2.234-0.536
	c0.63-0.195,1.154-0.374,1.569-0.535c0.418-0.16,0.753-0.242,1.008-0.242c0.154,0,0.278,0.03,0.379,0.091
	c0.099,0.059,0.177,0.164,0.237,0.316c0.061,0.153,0.095,0.37,0.106,0.651c0.012,0.279,0.006,0.635-0.017,1.059
	c-0.021,0.374-0.046,0.691-0.076,0.956c-0.031,0.263-0.068,0.488-0.111,0.675c-0.044,0.188-0.104,0.344-0.179,0.472
	c-0.074,0.128-0.17,0.251-0.287,0.371c-0.116,0.117-0.427,0.279-0.928,0.482c-0.506,0.204-1.146,0.404-1.921,0.6
	c-0.774,0.197-1.659,0.365-2.651,0.511c-0.995,0.143-2.053,0.216-3.175,0.216c-2.022,0-3.781-0.254-5.276-0.765
	s-2.724-1.282-3.69-2.32c-0.964-1.037-1.656-2.346-2.075-3.925c-0.419-1.582-0.571-3.435-0.459-5.561
	c0.104-2.021,0.463-3.844,1.076-5.468c0.611-1.623,1.447-3,2.511-4.129c1.063-1.131,2.324-1.993,3.793-2.59
	c1.468-0.593,3.104-0.891,4.906-0.891c1.902,0,3.516,0.281,4.838,0.842c1.32,0.562,2.389,1.338,3.205,2.333
	c0.814,0.995,1.392,2.171,1.727,3.53c0.338,1.361,0.464,2.838,0.378,4.438L211.963,33.809z M205.838,31.973
	c0.144-1.802-0.141-3.216-0.86-4.243c-0.721-1.029-1.889-1.543-3.502-1.543c-0.816,0-1.534,0.153-2.153,0.458
	c-0.62,0.306-1.143,0.718-1.567,1.237c-0.428,0.518-0.767,1.129-1.016,1.835c-0.25,0.705-0.413,1.458-0.487,2.255H205.838z"/>
<path fill="#38433D" d="M253.281,43.602c-0.04,0.747-0.117,1.321-0.231,1.719c-0.114,0.4-0.252,0.68-0.414,0.842
	c-0.161,0.163-0.396,0.308-0.699,0.436c-0.305,0.127-0.658,0.237-1.063,0.328c-0.404,0.095-0.839,0.166-1.311,0.218
	c-0.47,0.051-0.942,0.076-1.419,0.076c-1.273,0-2.373-0.16-3.289-0.482c-0.917-0.324-1.665-0.819-2.242-1.492
	c-0.576-0.671-0.984-1.517-1.22-2.536c-0.233-1.021-0.317-2.228-0.241-3.623l1.149-21.927c0.008-0.168,0.063-0.322,0.163-0.457
	c0.1-0.137,0.278-0.251,0.527-0.345c0.252-0.094,0.588-0.162,1.007-0.205c0.418-0.042,0.935-0.064,1.544-0.064
	c0.63,0,1.15,0.022,1.565,0.064c0.414,0.043,0.738,0.111,0.97,0.205c0.235,0.094,0.398,0.208,0.494,0.345
	c0.096,0.135,0.138,0.289,0.129,0.457l-0.267,5.075h4.946c0.169,0,0.315,0.043,0.439,0.127c0.125,0.085,0.222,0.226,0.297,0.42
	c0.075,0.196,0.123,0.464,0.15,0.803c0.022,0.34,0.022,0.758-0.004,1.25c-0.049,0.934-0.168,1.601-0.357,2.001
	c-0.192,0.399-0.449,0.599-0.771,0.599h-4.973l-0.559,10.683c-0.064,1.241,0.08,2.172,0.44,2.792c0.357,0.62,1.039,0.931,2.04,0.931
	c0.34,0,0.646-0.029,0.923-0.089c0.275-0.06,0.521-0.128,0.737-0.205c0.216-0.076,0.399-0.145,0.546-0.204
	c0.147-0.059,0.28-0.086,0.398-0.086c0.104,0,0.198,0.027,0.289,0.086c0.091,0.06,0.158,0.181,0.198,0.358
	c0.042,0.178,0.076,0.42,0.104,0.726C253.304,42.734,253.304,43.125,253.281,43.602"/>
<path fill="#38433D" d="M280.34,34.242c-0.101,1.938-0.448,3.706-1.041,5.304c-0.596,1.6-1.44,2.975-2.538,4.131
	c-1.097,1.156-2.444,2.049-4.041,2.679c-1.597,0.626-3.439,0.941-5.532,0.941c-2.023,0-3.766-0.279-5.232-0.841
	c-1.469-0.561-2.664-1.378-3.595-2.447c-0.93-1.069-1.592-2.387-1.987-3.952c-0.393-1.565-0.536-3.349-0.433-5.355
	c0.103-1.938,0.453-3.71,1.058-5.315c0.603-1.606,1.452-2.984,2.55-4.129c1.097-1.148,2.438-2.036,4.027-2.666
	c1.588-0.629,3.429-0.943,5.52-0.943c2.039,0,3.792,0.277,5.259,0.828c1.467,0.553,2.66,1.365,3.582,2.436
	c0.921,1.07,1.579,2.389,1.975,3.951C280.301,30.427,280.447,32.221,280.34,34.242 M273.722,34.5
	c0.061-1.123,0.025-2.156-0.104-3.099c-0.13-0.944-0.389-1.762-0.777-2.46s-0.926-1.241-1.608-1.633
	c-0.685-0.391-1.563-0.585-2.633-0.585c-0.954,0-1.795,0.175-2.528,0.521c-0.732,0.349-1.344,0.859-1.838,1.531
	c-0.494,0.672-0.881,1.479-1.159,2.422c-0.281,0.944-0.45,2.019-0.514,3.226c-0.059,1.123-0.021,2.155,0.117,3.099
	c0.141,0.942,0.396,1.762,0.775,2.459c0.381,0.698,0.919,1.237,1.613,1.618c0.693,0.384,1.565,0.576,2.62,0.576
	c0.969,0,1.819-0.175,2.551-0.523c0.733-0.35,1.347-0.854,1.839-1.518c0.493-0.662,0.875-1.467,1.146-2.411
	C273.493,36.78,273.66,35.706,273.722,34.5"/>
<path fill="#DA5133" d="M71.069,15.796C69.254,14.61,51.03,3.601,48.904,2.461c-3.079-1.65-7.113-2.455-11.815,0.035
	c-2.61,1.382-22.008,12.212-24.312,13.54c-3.471,2.003-5.491,4.481-5.836,9.442C6.715,28.695,5.218,50.144,5.03,52.825
	c-0.27,3.888,1.302,6.703,4.482,8.912c2.115,1.469,20.118,11.992,22.436,13.328c3.47,1.993,7.789,2.359,12.128-0.028
	c2.358-1.298,18.467-10.105,24.281-13.342c3.167-1.765,5.339-4.647,5.641-8.957c0.188-2.692,1.554-22.241,1.901-27.245
	C76.294,19.848,74.708,18.171,71.069,15.796 M26.735,44.018L26.735,44.018l0.008-0.088l0.243-2.326l0.01-0.09h0.002
	c0.328-2.91,1.714-5.069,3.587-6.537c-1.564-1.466-2.498-3.627-2.215-6.538h-0.003l0.01-0.091l0.244-2.32l0.008-0.094h0.005
	c0.692-6.142,6.097-8.942,10.849-8.942h7.345c0.637,0,0.914,0.442,0.866,0.889c-0.04,0.372-0.255,2.437-0.312,2.988
	c-0.06,0.558-0.457,0.937-1.054,0.937h-7.348c-0.853,0-5.125,0.202-5.545,4.222l-0.245,2.32c-0.419,4.018,3.81,4.223,4.66,4.223
	h7.345h0.004c0.381,0,0.647,0.154,0.776,0.411c0.077,0.143,0.104,0.312,0.087,0.479c-0.003,0.013-0.006,0.032-0.006,0.047
	c-0.054,0.532-0.259,2.479-0.308,2.941c0,0.014-0.003,0.032-0.004,0.045c-0.017,0.168-0.082,0.335-0.188,0.481
	c-0.183,0.254-0.482,0.409-0.861,0.409h-0.004h-7.345c-0.852,0-5.125,0.204-5.546,4.221l-0.243,2.326
	c-0.422,4.017,3.808,4.221,4.66,4.221h7.348c0.598,0,0.916,0.378,0.858,0.936c-0.058,0.552-0.275,2.614-0.314,2.986
	c-0.048,0.449-0.419,0.893-1.054,0.893H35.71C30.958,52.965,26.143,50.162,26.735,44.018 M54.25,33.591l-0.007,0.09l-0.247,2.324
	l-0.007,0.091h-0.002c-0.331,2.909-1.716,5.067-3.59,6.536c1.567,1.466,2.5,3.627,2.218,6.538h0.003l-0.009,0.088l-0.245,2.325
	l-0.007,0.09h-0.003c-0.694,6.144-6.099,8.946-10.852,8.946h-7.345c-0.634,0-0.912-0.441-0.867-0.894
	c0.041-0.368,0.255-2.435,0.315-2.984c0.058-0.559,0.457-0.938,1.052-0.938h7.349c0.853,0,5.125-0.2,5.545-4.22l0.244-2.325
	c0.419-4.015-3.809-4.219-4.66-4.219h-7.345h-0.005c-0.382,0-0.647-0.153-0.776-0.412c-0.074-0.143-0.103-0.311-0.084-0.478
	c0-0.014,0.002-0.033,0.005-0.047c0.054-0.534,0.258-2.481,0.306-2.941c0.003-0.015,0.004-0.034,0.006-0.044
	c0.018-0.169,0.082-0.337,0.186-0.481c0.184-0.257,0.479-0.41,0.863-0.41h0.005h7.345c0.85,0,5.123-0.202,5.544-4.221l0.244-2.324
	c0.42-4.018-3.809-4.222-4.661-4.222H37.42c-0.599,0-0.916-0.376-0.859-0.935c0.06-0.552,0.274-2.618,0.315-2.987
	c0.045-0.449,0.417-0.891,1.051-0.891h7.344c4.752,0,9.57,2.802,8.977,8.944H54.25z"/>
<path fill="#38433D" d="M83.803,57.958L84.13,51.8h2.122c0.479,0,0.843,0.03,1.091,0.089c0.349,0.08,0.643,0.228,0.88,0.441
	c0.311,0.273,0.534,0.625,0.674,1.051c0.137,0.428,0.191,0.916,0.162,1.465c-0.024,0.468-0.1,0.883-0.229,1.243
	c-0.129,0.363-0.285,0.66-0.468,0.898c-0.184,0.236-0.38,0.421-0.589,0.558c-0.212,0.136-0.461,0.239-0.752,0.31
	c-0.291,0.07-0.624,0.104-0.995,0.104H83.803z M84.657,57.232h1.315c0.406,0,0.726-0.037,0.962-0.113
	c0.234-0.076,0.423-0.182,0.568-0.32c0.204-0.192,0.368-0.453,0.493-0.778c0.125-0.326,0.2-0.723,0.224-1.187
	c0.035-0.646-0.044-1.14-0.238-1.486c-0.192-0.346-0.438-0.578-0.734-0.695c-0.213-0.084-0.563-0.125-1.048-0.125h-1.294
	L84.657,57.232z"/>
<path fill="#38433D" d="M89.341,57.958l2.69-6.158h0.878l2.196,6.158h-0.929l-0.62-1.864H90.98l-0.775,1.864H89.341z M91.251,55.43
	h2.088l-0.552-1.705c-0.169-0.517-0.292-0.944-0.37-1.276c-0.099,0.394-0.23,0.786-0.393,1.176L91.251,55.43z"/>
<polygon fill="#38433D" points="96.684,57.958 96.971,52.527 94.942,52.527 94.981,51.8 99.863,51.8 99.825,52.527 97.787,52.527 
	97.5,57.958 "/>
<path fill="#38433D" d="M99.058,57.958l2.691-6.158h0.878l2.195,6.158h-0.928l-0.62-1.864h-2.576l-0.775,1.864H99.058z
	 M100.969,55.43h2.087l-0.552-1.705c-0.169-0.517-0.292-0.944-0.37-1.276c-0.099,0.394-0.23,0.786-0.394,1.176L100.969,55.43z"/>
<path fill="#38433D" d="M106.238,57.958l2.69-6.158h0.878l2.196,6.158h-0.929l-0.62-1.864h-2.576l-0.775,1.864H106.238z
	 M108.148,55.43h2.088l-0.552-1.705c-0.17-0.517-0.292-0.944-0.371-1.276c-0.099,0.394-0.23,0.786-0.393,1.176L108.148,55.43z"/>
<polygon fill="#38433D" points="112.644,57.958 112.97,51.8 113.806,51.8 116.785,56.635 117.041,51.8 117.822,51.8 117.497,57.958 
	116.661,57.958 113.681,53.119 113.425,57.958 "/>
<path fill="#38433D" d="M118.19,57.958l2.69-6.158h0.878l2.196,6.158h-0.929l-0.619-1.864h-2.576l-0.775,1.864H118.19z
	 M120.101,55.43h2.088l-0.552-1.705c-0.169-0.517-0.292-0.944-0.37-1.276c-0.099,0.394-0.23,0.786-0.394,1.176L120.101,55.43z"/>
<polygon fill="#38433D" points="124.571,57.958 124.897,51.8 125.712,51.8 125.425,57.232 128.458,57.232 128.419,57.958 "/>
<path fill="#38433D" d="M130.487,57.958l0.138-2.607l-2.186-3.551h0.991l1.117,1.857c0.205,0.347,0.396,0.694,0.57,1.041
	c0.202-0.32,0.446-0.685,0.73-1.087l1.288-1.812h0.951l-2.646,3.551l-0.138,2.607H130.487z"/>
<path fill="#38433D" d="M134.317,55.979l0.773-0.065c0.021,0.308,0.091,0.56,0.213,0.757c0.123,0.197,0.321,0.357,0.595,0.479
	s0.586,0.183,0.936,0.183c0.311,0,0.587-0.046,0.831-0.138c0.243-0.093,0.427-0.22,0.552-0.381c0.124-0.161,0.192-0.337,0.202-0.527
	c0.01-0.193-0.037-0.362-0.142-0.506c-0.105-0.145-0.282-0.266-0.536-0.365c-0.162-0.063-0.522-0.163-1.081-0.299
	s-0.948-0.265-1.168-0.386c-0.287-0.152-0.496-0.344-0.627-0.573c-0.131-0.228-0.19-0.483-0.176-0.767
	c0.017-0.31,0.12-0.601,0.311-0.87c0.191-0.271,0.46-0.477,0.806-0.616c0.346-0.141,0.728-0.21,1.141-0.21
	c0.458,0,0.856,0.073,1.197,0.221c0.341,0.146,0.597,0.363,0.771,0.648c0.173,0.286,0.255,0.609,0.25,0.971l-0.784,0.06
	c-0.021-0.39-0.147-0.685-0.38-0.884c-0.231-0.197-0.583-0.297-1.057-0.297c-0.494,0-0.858,0.091-1.092,0.271
	c-0.234,0.181-0.359,0.398-0.374,0.653c-0.012,0.22,0.06,0.404,0.211,0.547c0.149,0.143,0.551,0.289,1.207,0.438
	c0.654,0.15,1.102,0.282,1.342,0.393c0.35,0.166,0.603,0.376,0.761,0.629c0.158,0.254,0.227,0.546,0.209,0.876
	c-0.018,0.328-0.128,0.637-0.33,0.926c-0.203,0.29-0.484,0.517-0.845,0.677c-0.36,0.16-0.759,0.242-1.2,0.242
	c-0.557,0-1.02-0.083-1.388-0.244c-0.368-0.161-0.65-0.407-0.847-0.733C134.399,56.761,134.307,56.393,134.317,55.979"/>
<polygon fill="#38433D" points="140.368,57.958 140.694,51.8 141.509,51.8 141.183,57.958 "/>
<path fill="#38433D" d="M142.446,55.979l0.773-0.065c0.021,0.308,0.091,0.56,0.213,0.757c0.123,0.197,0.32,0.357,0.594,0.479
	c0.274,0.122,0.587,0.183,0.937,0.183c0.312,0,0.588-0.046,0.831-0.138c0.242-0.093,0.428-0.22,0.552-0.381s0.191-0.337,0.202-0.527
	c0.01-0.193-0.037-0.362-0.142-0.506c-0.104-0.145-0.282-0.266-0.535-0.365c-0.161-0.063-0.523-0.163-1.081-0.299
	c-0.559-0.136-0.948-0.265-1.168-0.386c-0.287-0.152-0.496-0.344-0.627-0.573c-0.131-0.228-0.19-0.483-0.176-0.767
	c0.017-0.31,0.119-0.601,0.31-0.87c0.192-0.271,0.461-0.477,0.807-0.616c0.346-0.141,0.727-0.21,1.14-0.21
	c0.458,0,0.856,0.073,1.197,0.221c0.342,0.146,0.597,0.363,0.771,0.648c0.172,0.286,0.255,0.609,0.25,0.971l-0.785,0.06
	c-0.021-0.39-0.146-0.685-0.38-0.884c-0.23-0.197-0.582-0.297-1.058-0.297c-0.493,0-0.856,0.091-1.092,0.271
	c-0.234,0.181-0.357,0.398-0.373,0.653c-0.012,0.22,0.061,0.404,0.212,0.547c0.148,0.143,0.551,0.289,1.207,0.438
	c0.653,0.15,1.101,0.282,1.341,0.393c0.349,0.166,0.603,0.376,0.761,0.629c0.157,0.254,0.228,0.546,0.209,0.876
	c-0.017,0.328-0.128,0.637-0.329,0.926c-0.204,0.29-0.484,0.517-0.846,0.677c-0.359,0.16-0.759,0.242-1.199,0.242
	c-0.558,0-1.02-0.083-1.389-0.244c-0.367-0.161-0.649-0.407-0.847-0.733C142.528,56.761,142.436,56.393,142.446,55.979"/>
<path fill="#38433D" d="M176.642,21.678c-3.199,0-5.653,1.05-7.428,2.449c-1.676-1.449-4.071-2.449-7.371-2.449
	c-6.703,0-10.995,2.751-11.31,8.75l-0.835,15.392c-0.01,0.176,0.037,0.329,0.134,0.463c0.101,0.134,0.271,0.244,0.514,0.333
	c0.244,0.092,0.579,0.155,1.013,0.2c0.43,0.046,0.973,0.066,1.628,0.066c0.64,0,1.176-0.021,1.611-0.066
	c0.438-0.045,0.781-0.108,1.033-0.2c0.252-0.089,0.436-0.199,0.549-0.333c0.112-0.134,0.175-0.287,0.182-0.463l0.784-14.692
	c0.16-3.05,1.424-4.251,4.373-4.251c2.95,0,4.137,1.201,3.976,4.251l-0.815,14.727c-0.008,0.173,0.036,0.319,0.128,0.449
	c0.099,0.129,0.264,0.236,0.498,0.322c0.233,0.087,0.56,0.146,0.978,0.193c0.414,0.042,0.939,0.063,1.571,0.063
	c0.615,0,1.133-0.021,1.554-0.063c0.42-0.047,0.753-0.106,0.998-0.193c0.242-0.086,0.42-0.193,0.525-0.322
	c0.11-0.13,0.169-0.276,0.181-0.449l0.809-15.178c0.242-2.697,1.601-3.8,4.399-3.8c2.95,0,4.086,1.201,3.927,4.251l-0.055,1.002
	c-0.001,0.007-0.008,0.014-0.008,0.022l-0.716,13.657c-0.007,0.176,0.034,0.333,0.137,0.468c0.101,0.135,0.272,0.246,0.519,0.337
	c0.247,0.091,0.587,0.156,1.022,0.201c0.437,0.047,0.985,0.067,1.647,0.067c0.643,0,1.185-0.021,1.626-0.067
	c0.439-0.045,0.788-0.11,1.043-0.201c0.256-0.091,0.441-0.202,0.554-0.337c0.113-0.135,0.177-0.292,0.187-0.468l0.831-15.381
	C187.348,24.429,183.343,21.678,176.642,21.678"/>
<path fill="#38433D" d="M111.595,21.678c-3.2,0-5.654,1.05-7.428,2.449c-1.674-1.449-4.072-2.449-7.372-2.449
	c-6.7,0-10.994,2.751-11.31,8.75L84.65,45.82c-0.008,0.176,0.036,0.329,0.134,0.463c0.101,0.134,0.271,0.244,0.515,0.333
	c0.243,0.092,0.579,0.155,1.012,0.2c0.43,0.046,0.974,0.066,1.629,0.066c0.637,0,1.175-0.021,1.61-0.066
	c0.437-0.045,0.779-0.108,1.034-0.2c0.253-0.089,0.436-0.199,0.547-0.333c0.114-0.134,0.175-0.287,0.184-0.463l0.783-14.692
	c0.161-3.05,1.424-4.251,4.374-4.251s4.137,1.201,3.977,4.251l-0.817,14.727c-0.009,0.173,0.035,0.319,0.129,0.449
	c0.097,0.129,0.261,0.236,0.495,0.322c0.235,0.087,0.56,0.146,0.977,0.193c0.417,0.042,0.941,0.063,1.572,0.063
	c0.616,0,1.133-0.021,1.554-0.063c0.421-0.047,0.752-0.106,0.997-0.193c0.243-0.086,0.421-0.193,0.528-0.322
	c0.109-0.13,0.17-0.276,0.179-0.449l0.81-15.178c0.242-2.697,1.6-3.8,4.4-3.8c2.949,0,4.086,1.201,3.927,4.251l-0.055,1.002
	c-0.001,0.007-0.008,0.014-0.008,0.022L114.42,45.81c-0.008,0.176,0.036,0.333,0.137,0.468c0.1,0.135,0.273,0.246,0.519,0.337
	s0.586,0.156,1.022,0.201c0.436,0.047,0.984,0.067,1.646,0.067c0.644,0,1.187-0.021,1.627-0.067c0.441-0.045,0.788-0.11,1.044-0.201
	c0.254-0.091,0.44-0.202,0.553-0.337c0.114-0.135,0.177-0.292,0.186-0.468l0.832-15.381C122.3,24.429,118.296,21.678,111.595,21.678
	"/>
<path fill="#38433D" d="M226.943,21.687c-6.643,0-10.886,2.687-11.192,8.545l-0.799,15.604c-0.008,0.172,0.035,0.324,0.132,0.452
	c0.098,0.132,0.264,0.244,0.506,0.331c0.237,0.087,0.567,0.152,0.991,0.195c0.423,0.043,0.955,0.064,1.599,0.064
	c0.627,0,1.151-0.021,1.58-0.064c0.428-0.043,0.765-0.108,1.016-0.195c0.246-0.087,0.425-0.199,0.536-0.331
	c0.109-0.128,0.17-0.28,0.181-0.452l0.766-14.919c0.157-2.979,1.439-4.151,4.37-4.151c2.93,0,4.089,1.172,3.931,4.151l-0.839,14.887
	c-0.008,0.178,0.036,0.335,0.137,0.47c0.102,0.135,0.272,0.244,0.521,0.337c0.245,0.091,0.584,0.156,1.021,0.201
	c0.436,0.045,0.985,0.067,1.646,0.067c0.645,0,1.188-0.022,1.629-0.067c0.439-0.045,0.787-0.11,1.043-0.201
	c0.256-0.093,0.439-0.202,0.554-0.337c0.113-0.135,0.177-0.292,0.188-0.47l0.781-15.572
	C237.546,24.373,233.585,21.687,226.943,21.687"/>
</svg>
