<?xml version="1.0" encoding="utf-8"?>
<!-- Generator: Adobe Illustrator 15.0.0, SVG Export Plug-In . SVG Version: 6.00 Build 0)  -->
<!DOCTYPE svg PUBLIC "-//W3C//DTD SVG 1.1//EN" "http://www.w3.org/Graphics/SVG/1.1/DTD/svg11.dtd">
<svg version="1.1" id="Capa_1" xmlns="http://www.w3.org/2000/svg" xmlns:xlink="http://www.w3.org/1999/xlink" x="0px" y="0px"
	 width="24px" height="25px" viewBox="0 0 24 25" enable-background="new 0 0 24 25" xml:space="preserve">
<path fill="#FFFFFF" d="M21.524,5.161c-0.591-0.388-6.528-3.973-7.222-4.345c-1.002-0.537-2.316-0.799-3.848,0.012
	c-0.851,0.449-7.17,3.977-7.921,4.412c-1.13,0.651-1.789,1.459-1.901,3.074c-0.073,1.05-0.562,8.037-0.623,8.911
	c-0.088,1.266,0.424,2.184,1.46,2.902c0.69,0.479,6.554,3.907,7.31,4.342c1.13,0.649,2.538,0.77,3.951-0.009
	c0.768-0.422,6.017-3.292,7.909-4.347c1.032-0.575,1.74-1.514,1.839-2.918c0.061-0.876,0.506-7.246,0.619-8.875
	C23.226,6.48,22.71,5.934,21.524,5.161 M7.082,14.354H7.08l0.004-0.029l0.08-0.758l0.002-0.03h0.001
	c0.106-0.947,0.558-1.65,1.168-2.128c-0.509-0.478-0.813-1.182-0.721-2.131H7.612l0.004-0.03l0.08-0.755l0.002-0.03h0.002
	c0.226-2,1.986-2.913,3.535-2.913h2.391c0.209,0,0.3,0.145,0.283,0.289c-0.014,0.122-0.083,0.794-0.102,0.974
	c-0.02,0.182-0.147,0.306-0.343,0.306h-2.396c-0.275,0-1.668,0.066-1.805,1.375l-0.08,0.755c-0.137,1.311,1.241,1.377,1.519,1.377
	h2.392h0.002c0.124,0,0.21,0.05,0.254,0.134c0.024,0.047,0.033,0.101,0.027,0.156c0,0.003-0.002,0.009-0.002,0.014
	c-0.018,0.174-0.085,0.808-0.101,0.959c0,0.004,0,0.011-0.002,0.014c-0.006,0.056-0.025,0.109-0.061,0.156
	c-0.059,0.083-0.156,0.134-0.28,0.134H12.93h-2.393c-0.276,0-1.668,0.066-1.806,1.375l-0.08,0.758
	c-0.138,1.309,1.241,1.374,1.519,1.374h2.395c0.193,0,0.298,0.124,0.279,0.307c-0.02,0.179-0.089,0.851-0.103,0.972
	c-0.017,0.146-0.136,0.289-0.343,0.289h-2.393C8.457,17.267,6.887,16.354,7.082,14.354 M16.045,10.957l-0.002,0.029l-0.08,0.758
	l-0.004,0.029l0,0c-0.107,0.947-0.559,1.651-1.169,2.13c0.512,0.478,0.815,1.182,0.723,2.13l0,0l-0.004,0.028l-0.077,0.758
	l-0.004,0.028l0,0c-0.226,2.003-1.988,2.915-3.537,2.915H9.5c-0.207,0-0.297-0.145-0.283-0.291c0.014-0.12,0.083-0.793,0.103-0.973
	c0.019-0.183,0.149-0.305,0.342-0.305h2.396c0.278,0,1.669-0.067,1.807-1.375l0.078-0.758c0.138-1.31-1.24-1.375-1.516-1.375h-2.395
	h-0.002c-0.123,0-0.21-0.05-0.251-0.133c-0.024-0.048-0.035-0.102-0.028-0.157c0-0.004,0-0.011,0.002-0.015
	c0.017-0.174,0.083-0.808,0.099-0.959c0.001-0.003,0.001-0.011,0.001-0.014c0.006-0.056,0.028-0.109,0.061-0.157
	c0.06-0.083,0.156-0.133,0.282-0.133h0.001h2.392c0.277,0,1.67-0.066,1.808-1.375l0.078-0.758c0.138-1.309-1.241-1.375-1.518-1.375
	h-2.395c-0.194,0-0.298-0.123-0.28-0.306c0.02-0.179,0.091-0.852,0.103-0.972c0.017-0.147,0.138-0.29,0.345-0.29h2.392
	C14.668,8.044,16.237,8.957,16.045,10.957L16.045,10.957z"/>
</svg>
